<svg id="Layer_1" data-name="Layer 1" xmlns="http://www.w3.org/2000/svg" viewBox="0 0 98.97266 39.96973">
  <title>login-background</title>
  <rect x="-1.26123" y="-1.64624" width="101" height="43" style="fill: #1a5cc6"/>
  <rect y="1.90332" width="1.90332" height="1.90332" style="fill: #07a8eb"/>
  <rect x="1.90332" width="1.90332" height="1.90332" style="fill: #07a8eb"/>
  <rect x="7.61328" y="5.70996" width="1.90332" height="1.90332" style="fill: #07a8eb"/>
  <rect x="5.70996" width="1.90332" height="1.90332" transform="translate(7.61328 -5.70996) rotate(90)" style="fill: #07a8eb"/>
  <rect x="3.80664" y="1.90332" width="1.90332" height="1.90332" transform="translate(7.61328 -1.90332) rotate(90)" style="fill: #07a8eb"/>
  <rect x="7.61328" width="1.90332" height="1.90332" transform="translate(9.5166 -7.61328) rotate(90)" style="fill: #07a8eb"/>
  <rect y="7.61328" width="1.90332" height="1.90332" style="fill: #07a8eb"/>
  <rect y="3.80664" width="1.90332" height="1.90332" style="fill: #07a8eb"/>
  <rect x="5.70996" y="3.80664" width="1.90332" height="1.90332" style="fill: #07a8eb"/>
  <rect x="5.70996" y="9.5166" width="1.90332" height="1.90332" style="fill: #07a8eb"/>
  <rect x="9.5166" y="3.80664" width="1.90332" height="1.90332" transform="translate(15.22656 -5.70996) rotate(90)" style="fill: #07a8eb"/>
  <rect x="9.5166" y="9.5166" width="1.90332" height="1.90332" transform="translate(20.93652) rotate(90)" style="fill: #07a8eb"/>
  <rect x="11.41992" y="5.70996" width="1.90332" height="1.90332" transform="translate(19.0332 -5.70996) rotate(90)" style="fill: #07a8eb"/>
  <rect x="11.41992" y="1.90332" width="1.90332" height="1.90332" style="fill: #07a8eb"/>
  <rect x="13.32324" width="1.90332" height="1.90332" style="fill: #07a8eb"/>
  <rect x="15.22656" y="1.90332" width="1.90332" height="1.90332" transform="translate(19.0332 -13.32324) rotate(90)" style="fill: #07a8eb"/>
  <rect x="19.0332" width="1.90332" height="1.90332" transform="translate(20.93652 -19.0332) rotate(90)" style="fill: #07a8eb"/>
  <rect x="3.80664" y="7.61328" width="1.90332" height="1.90332" style="fill: #07a8eb"/>
  <rect x="13.32324" y="3.80664" width="1.90332" height="1.90332" style="fill: #07a8eb"/>
  <rect x="17.12988" y="3.80664" width="1.90332" height="1.90332" style="fill: #07a8eb"/>
  <rect x="17.12988" y="9.5166" width="1.90332" height="1.90332" style="fill: #07a8eb"/>
  <rect x="20.93652" y="7.61328" width="1.90332" height="1.90332" transform="translate(30.45313 -13.32324) rotate(90)" style="fill: #07a8eb"/>
  <rect x="19.0332" y="1.90332" width="1.90332" height="1.90332" transform="translate(22.83984 -17.12988) rotate(90)" style="fill: #07a8eb"/>
  <rect x="22.83984" y="5.70996" width="1.90332" height="1.90332" transform="translate(30.45313 -17.12988) rotate(90)" style="fill: #07a8eb"/>
  <rect y="11.41992" width="1.90332" height="1.90332" style="fill: #07a8eb"/>
  <rect x="1.90332" y="9.5166" width="1.90332" height="1.90332" style="fill: #07a8eb"/>
  <rect x="7.61328" y="15.22656" width="1.90332" height="1.90332" style="fill: #07a8eb"/>
  <rect x="1.90332" y="5.70996" width="1.90332" height="1.90332" style="fill: #07a8eb"/>
  <rect x="5.70996" y="7.61328" width="1.90332" height="1.90332" transform="translate(15.22656 1.90332) rotate(90)" style="fill: #07a8eb"/>
  <rect x="3.80664" y="11.41992" width="1.90332" height="1.90332" transform="translate(17.12988 7.61328) rotate(90)" style="fill: #07a8eb"/>
  <rect x="7.61328" y="9.5166" width="1.90332" height="1.90332" transform="translate(19.0332 1.90332) rotate(90)" style="fill: #07a8eb"/>
  <rect x="3.80664" y="17.12988" width="1.90332" height="1.90332" style="fill: #07a8eb"/>
  <rect x="1.90332" y="13.32324" width="1.90332" height="1.90332" style="fill: #07a8eb"/>
  <rect x="5.70996" y="13.32324" width="1.90332" height="1.90332" style="fill: #07a8eb"/>
  <rect x="5.70996" y="19.0332" width="1.90332" height="1.90332" style="fill: #07a8eb"/>
  <rect x="9.5166" y="13.32324" width="1.90332" height="1.90332" transform="translate(24.74316 3.80664) rotate(90)" style="fill: #07a8eb"/>
  <rect x="9.5166" y="19.0332" width="1.90332" height="1.90332" transform="translate(30.45313 9.5166) rotate(90)" style="fill: #07a8eb"/>
  <rect x="11.41992" y="15.22656" width="1.90332" height="1.90332" transform="translate(28.5498 3.80664) rotate(90)" style="fill: #07a8eb"/>
  <rect x="11.41992" y="11.41992" width="1.90332" height="1.90332" style="fill: #07a8eb"/>
  <rect x="13.32324" y="9.5166" width="1.90332" height="1.90332" style="fill: #07a8eb"/>
  <rect x="22.83984" y="7.61328" width="1.90332" height="1.90332" style="fill: #07a8eb"/>
  <rect x="15.22656" y="5.70996" width="1.90332" height="1.90332" style="fill: #07a8eb"/>
  <rect x="17.12988" y="7.61328" width="1.90332" height="1.90332" transform="translate(26.64648 -9.5166) rotate(90)" style="fill: #07a8eb"/>
  <rect x="15.22656" y="11.41992" width="1.90332" height="1.90332" transform="translate(28.5498 -3.80664) rotate(90)" style="fill: #07a8eb"/>
  <rect x="19.0332" y="9.5166" width="1.90332" height="1.90332" transform="translate(30.45313 -9.5166) rotate(90)" style="fill: #07a8eb"/>
  <rect x="15.22656" y="17.12988" width="1.90332" height="1.90332" style="fill: #07a8eb"/>
  <rect x="13.32324" y="13.32324" width="1.90332" height="1.90332" style="fill: #07a8eb"/>
  <rect x="17.12988" y="13.32324" width="1.90332" height="1.90332" style="fill: #07a8eb"/>
  <rect x="17.12988" y="19.0332" width="1.90332" height="1.90332" style="fill: #07a8eb"/>
  <rect x="20.93652" y="13.32324" width="1.90332" height="1.90332" transform="translate(36.16309 -7.61328) rotate(90)" style="fill: #07a8eb"/>
  <rect x="19.0332" y="17.12988" width="1.90332" height="1.90332" transform="translate(38.06641 -1.90332) rotate(90)" style="fill: #07a8eb"/>
  <rect x="22.83984" y="15.22656" width="1.90332" height="1.90332" transform="translate(39.96973 -7.61328) rotate(90)" style="fill: #07a8eb"/>
  <rect y="22.83984" width="1.90332" height="1.90332" style="fill: #07a8eb"/>
  <rect x="1.90332" y="20.93652" width="1.90332" height="1.90332" style="fill: #07a8eb"/>
  <rect x="7.61328" y="26.64648" width="1.90332" height="1.90332" style="fill: #07a8eb"/>
  <rect x="3.80664" y="17.12988" width="1.90332" height="1.90332" style="fill: #07a8eb"/>
  <rect x="5.70996" y="19.0332" width="1.90332" height="1.90332" transform="translate(26.64648 13.32324) rotate(90)" style="fill: #07a8eb"/>
  <rect x="3.80664" y="22.83984" width="1.90332" height="1.90332" transform="translate(28.5498 19.0332) rotate(90)" style="fill: #07a8eb"/>
  <rect x="7.61328" y="19.0332" width="1.90332" height="1.90332" transform="translate(28.5498 11.41992) rotate(90)" style="fill: #07a8eb"/>
  <rect x="1.90332" y="28.5498" width="1.90332" height="1.90332" style="fill: #07a8eb"/>
  <rect x="1.90332" y="24.74316" width="1.90332" height="1.90332" style="fill: #07a8eb"/>
  <rect x="5.70996" y="24.74316" width="1.90332" height="1.90332" style="fill: #07a8eb"/>
  <rect x="5.70996" y="30.45313" width="1.90332" height="1.90332" style="fill: #07a8eb"/>
  <rect x="9.5166" y="24.74316" width="1.90332" height="1.90332" transform="translate(36.16309 15.22656) rotate(90)" style="fill: #07a8eb"/>
  <rect x="11.41992" y="26.64648" width="1.90332" height="1.90332" transform="translate(39.96973 15.22656) rotate(90)" style="fill: #07a8eb"/>
  <rect x="11.41992" y="30.45313" width="1.90332" height="1.90332" transform="translate(43.77637 19.0332) rotate(90)" style="fill: #07a8eb"/>
  <rect x="11.41992" y="22.83984" width="1.90332" height="1.90332" style="fill: #07a8eb"/>
  <rect x="13.32324" y="20.93652" width="1.90332" height="1.90332" style="fill: #07a8eb"/>
  <rect y="15.22656" width="1.90332" height="1.90332" style="fill: #07a8eb"/>
  <rect x="15.22656" y="17.12988" width="1.90332" height="1.90332" style="fill: #07a8eb"/>
  <rect x="17.12988" y="19.0332" width="1.90332" height="1.90332" transform="translate(38.06641 1.90332) rotate(90)" style="fill: #07a8eb"/>
  <rect x="15.22656" y="22.83984" width="1.90332" height="1.90332" transform="translate(39.96973 7.61328) rotate(90)" style="fill: #07a8eb"/>
  <rect x="19.0332" y="20.93652" width="1.90332" height="1.90332" transform="translate(41.87305 1.90332) rotate(90)" style="fill: #07a8eb"/>
  <rect x="15.22656" y="28.5498" width="1.90332" height="1.90332" style="fill: #07a8eb"/>
  <rect x="13.32324" y="26.64648" width="1.90332" height="1.90332" style="fill: #07a8eb"/>
  <rect x="17.12988" y="26.64648" width="1.90332" height="1.90332" style="fill: #07a8eb"/>
  <rect x="17.12988" y="30.45313" width="1.90332" height="1.90332" style="fill: #07a8eb"/>
  <rect x="20.93652" y="24.74316" width="1.90332" height="1.90332" transform="translate(47.58301 3.80664) rotate(90)" style="fill: #07a8eb"/>
  <rect x="19.0332" y="28.5498" width="1.90332" height="1.90332" transform="translate(49.48633 9.5166) rotate(90)" style="fill: #07a8eb"/>
  <rect x="22.83984" y="26.64648" width="1.90332" height="1.90332" transform="translate(51.38965 3.80664) rotate(90)" style="fill: #07a8eb"/>
  <rect x="47.58301" y="28.5498" width="1.90332" height="1.90332" transform="translate(97.06934 59.00293) rotate(180)" style="fill: #07a8eb"/>
  <rect x="45.67969" y="30.45313" width="1.90332" height="1.90332" transform="translate(93.2627 62.80957) rotate(180)" style="fill: #07a8eb"/>
  <rect x="39.96973" y="24.74316" width="1.90332" height="1.90332" transform="translate(81.84277 51.38965) rotate(180)" style="fill: #07a8eb"/>
  <rect x="43.77637" y="28.5498" width="1.90332" height="1.90332" transform="translate(15.22656 74.22949) rotate(-90)" style="fill: #07a8eb"/>
  <rect x="39.96973" y="30.45313" width="1.90332" height="1.90332" transform="translate(9.5166 72.32617) rotate(-90)" style="fill: #07a8eb"/>
  <rect x="43.77637" y="22.83984" width="1.90332" height="1.90332" transform="translate(89.45605 47.58301) rotate(180)" style="fill: #07a8eb"/>
  <rect x="45.67969" y="26.64648" width="1.90332" height="1.90332" transform="translate(93.2627 55.19629) rotate(180)" style="fill: #07a8eb"/>
  <rect x="41.87305" y="28.5498" width="1.90332" height="1.90332" transform="translate(85.64941 59.00293) rotate(180)" style="fill: #07a8eb"/>
  <rect x="38.06641" y="26.64648" width="1.90332" height="1.90332" transform="translate(11.41992 66.61621) rotate(-90)" style="fill: #07a8eb"/>
  <rect x="36.16309" y="20.93652" width="1.90332" height="1.90332" transform="translate(15.22656 59.00293) rotate(-90)" style="fill: #07a8eb"/>
  <rect x="36.16309" y="24.74316" width="1.90332" height="1.90332" transform="translate(11.41992 62.80957) rotate(-90)" style="fill: #07a8eb"/>
  <rect x="36.16309" y="28.5498" width="1.90332" height="1.90332" transform="translate(74.22949 59.00293) rotate(180)" style="fill: #07a8eb"/>
  <rect x="34.25977" y="30.45313" width="1.90332" height="1.90332" transform="translate(70.42285 62.80957) rotate(180)" style="fill: #07a8eb"/>
  <rect x="32.35645" y="28.5498" width="1.90332" height="1.90332" transform="translate(3.80664 62.80957) rotate(-90)" style="fill: #07a8eb"/>
  <rect x="28.5498" y="30.45313" width="1.90332" height="1.90332" transform="translate(-1.90332 60.90625) rotate(-90)" style="fill: #07a8eb"/>
  <rect x="32.35645" y="22.83984" width="1.90332" height="1.90332" transform="translate(66.61621 47.58301) rotate(180)" style="fill: #07a8eb"/>
  <rect x="34.25977" y="24.74316" width="1.90332" height="1.90332" transform="translate(70.42285 51.38965) rotate(180)" style="fill: #07a8eb"/>
  <rect x="30.45313" y="26.64648" width="1.90332" height="1.90332" transform="translate(62.80957 55.19629) rotate(180)" style="fill: #07a8eb"/>
  <rect x="30.45313" y="20.93652" width="1.90332" height="1.90332" transform="translate(62.80957 43.77637) rotate(180)" style="fill: #07a8eb"/>
  <rect x="26.64648" y="26.64648" width="1.90332" height="1.90332" transform="translate(0 55.19629) rotate(-90)" style="fill: #07a8eb"/>
  <rect x="28.5498" y="22.83984" width="1.90332" height="1.90332" transform="translate(5.70996 53.29297) rotate(-90)" style="fill: #07a8eb"/>
  <rect x="24.74316" y="24.74316" width="1.90332" height="1.90332" transform="translate(0 51.38965) rotate(-90)" style="fill: #07a8eb"/>
  <rect x="47.58301" y="17.12988" width="1.90332" height="1.90332" transform="translate(97.06934 36.16309) rotate(180)" style="fill: #07a8eb"/>
  <rect x="45.67969" y="19.0332" width="1.90332" height="1.90332" transform="translate(93.2627 39.96973) rotate(180)" style="fill: #07a8eb"/>
  <rect x="39.96973" y="13.32324" width="1.90332" height="1.90332" transform="translate(81.84277 28.5498) rotate(180)" style="fill: #07a8eb"/>
  <rect x="43.77637" y="22.83984" width="1.90332" height="1.90332" transform="translate(89.45605 47.58301) rotate(180)" style="fill: #07a8eb"/>
  <rect x="41.87305" y="19.0332" width="1.90332" height="1.90332" transform="translate(22.83984 62.80957) rotate(-90)" style="fill: #07a8eb"/>
  <rect x="43.77637" y="17.12988" width="1.90332" height="1.90332" transform="translate(26.64648 62.80957) rotate(-90)" style="fill: #07a8eb"/>
  <rect x="39.96973" y="19.0332" width="1.90332" height="1.90332" transform="translate(20.93652 60.90625) rotate(-90)" style="fill: #07a8eb"/>
  <rect x="47.58301" y="11.41992" width="1.90332" height="1.90332" transform="translate(97.06934 24.74316) rotate(180)" style="fill: #07a8eb"/>
  <rect x="47.58301" y="15.22656" width="1.90332" height="1.90332" transform="translate(97.06934 32.35645) rotate(180)" style="fill: #07a8eb"/>
  <rect x="41.87305" y="15.22656" width="1.90332" height="1.90332" transform="translate(85.64941 32.35645) rotate(180)" style="fill: #07a8eb"/>
  <rect x="41.87305" y="9.5166" width="1.90332" height="1.90332" transform="translate(85.64941 20.93652) rotate(180)" style="fill: #07a8eb"/>
  <rect x="38.06641" y="15.22656" width="1.90332" height="1.90332" transform="translate(22.83984 55.19629) rotate(-90)" style="fill: #07a8eb"/>
  <rect x="38.06641" y="9.5166" width="1.90332" height="1.90332" transform="translate(28.5498 49.48633) rotate(-90)" style="fill: #07a8eb"/>
  <rect x="36.16309" y="13.32324" width="1.90332" height="1.90332" transform="translate(22.83984 51.38965) rotate(-90)" style="fill: #07a8eb"/>
  <rect x="36.16309" y="17.12988" width="1.90332" height="1.90332" transform="translate(74.22949 36.16309) rotate(180)" style="fill: #07a8eb"/>
  <rect x="34.25977" y="19.0332" width="1.90332" height="1.90332" transform="translate(70.42285 39.96973) rotate(180)" style="fill: #07a8eb"/>
  <rect x="47.58301" y="24.74316" width="1.90332" height="1.90332" transform="translate(97.06934 51.38965) rotate(180)" style="fill: #07a8eb"/>
  <rect x="32.35645" y="22.83984" width="1.90332" height="1.90332" transform="translate(66.61621 47.58301) rotate(180)" style="fill: #07a8eb"/>
  <rect x="30.45313" y="20.93652" width="1.90332" height="1.90332" transform="translate(9.5166 53.29297) rotate(-90)" style="fill: #07a8eb"/>
  <rect x="32.35645" y="17.12988" width="1.90332" height="1.90332" transform="translate(15.22656 51.38965) rotate(-90)" style="fill: #07a8eb"/>
  <rect x="28.5498" y="19.0332" width="1.90332" height="1.90332" transform="translate(9.5166 49.48633) rotate(-90)" style="fill: #07a8eb"/>
  <rect x="43.77637" y="11.41992" width="1.90332" height="1.90332" transform="translate(89.45605 24.74316) rotate(180)" style="fill: #07a8eb"/>
  <rect x="34.25977" y="15.22656" width="1.90332" height="1.90332" transform="translate(70.42285 32.35645) rotate(180)" style="fill: #07a8eb"/>
  <rect x="30.45313" y="15.22656" width="1.90332" height="1.90332" transform="translate(62.80957 32.35645) rotate(180)" style="fill: #07a8eb"/>
  <rect x="30.45313" y="9.5166" width="1.90332" height="1.90332" transform="translate(62.80957 20.93652) rotate(180)" style="fill: #07a8eb"/>
  <rect x="26.64648" y="11.41992" width="1.90332" height="1.90332" transform="translate(15.22656 39.96973) rotate(-90)" style="fill: #07a8eb"/>
  <rect x="28.5498" y="17.12988" width="1.90332" height="1.90332" transform="translate(11.41992 47.58301) rotate(-90)" style="fill: #07a8eb"/>
  <rect x="24.74316" y="13.32324" width="1.90332" height="1.90332" transform="translate(11.41992 39.96973) rotate(-90)" style="fill: #07a8eb"/>
  <rect x="47.58301" y="7.61328" width="1.90332" height="1.90332" transform="translate(97.06934 17.12988) rotate(180)" style="fill: #07a8eb"/>
  <rect x="45.67969" y="9.5166" width="1.90332" height="1.90332" transform="translate(93.2627 20.93652) rotate(180)" style="fill: #07a8eb"/>
  <rect x="39.96973" y="3.80664" width="1.90332" height="1.90332" transform="translate(81.84277 9.5166) rotate(180)" style="fill: #07a8eb"/>
  <rect x="45.67969" y="13.32324" width="1.90332" height="1.90332" transform="translate(93.2627 28.5498) rotate(180)" style="fill: #07a8eb"/>
  <rect x="41.87305" y="11.41992" width="1.90332" height="1.90332" transform="translate(30.45313 55.19629) rotate(-90)" style="fill: #07a8eb"/>
  <rect x="43.77637" y="7.61328" width="1.90332" height="1.90332" transform="translate(36.16309 53.29297) rotate(-90)" style="fill: #07a8eb"/>
  <rect x="39.96973" y="9.5166" width="1.90332" height="1.90332" transform="translate(30.45313 51.38965) rotate(-90)" style="fill: #07a8eb"/>
  <rect x="43.77637" y="1.90332" width="1.90332" height="1.90332" transform="translate(89.45605 5.70996) rotate(180)" style="fill: #07a8eb"/>
  <rect x="45.67969" y="5.70996" width="1.90332" height="1.90332" transform="translate(93.2627 13.32324) rotate(180)" style="fill: #07a8eb"/>
  <rect x="41.87305" y="5.70996" width="1.90332" height="1.90332" transform="translate(85.64941 13.32324) rotate(180)" style="fill: #07a8eb"/>
  <rect x="41.87305" width="1.90332" height="1.90332" transform="translate(85.64941 1.90332) rotate(180)" style="fill: #07a8eb"/>
  <rect x="38.06641" y="5.70996" width="1.90332" height="1.90332" transform="translate(32.35645 45.67969) rotate(-90)" style="fill: #07a8eb"/>
  <rect x="38.06641" width="1.90332" height="1.90332" transform="translate(38.06641 39.96973) rotate(-90)" style="fill: #07a8eb"/>
  <rect x="36.16309" y="3.80664" width="1.90332" height="1.90332" transform="translate(32.35645 41.87305) rotate(-90)" style="fill: #07a8eb"/>
  <rect x="36.16309" y="7.61328" width="1.90332" height="1.90332" transform="translate(74.22949 17.12988) rotate(180)" style="fill: #07a8eb"/>
  <rect x="34.25977" y="9.5166" width="1.90332" height="1.90332" transform="translate(70.42285 20.93652) rotate(180)" style="fill: #07a8eb"/>
  <rect x="24.74316" y="11.41992" width="1.90332" height="1.90332" transform="translate(51.38965 24.74316) rotate(180)" style="fill: #07a8eb"/>
  <rect x="32.35645" y="13.32324" width="1.90332" height="1.90332" transform="translate(66.61621 28.5498) rotate(180)" style="fill: #07a8eb"/>
  <rect x="30.45313" y="11.41992" width="1.90332" height="1.90332" transform="translate(19.0332 43.77637) rotate(-90)" style="fill: #07a8eb"/>
  <rect x="32.35645" y="7.61328" width="1.90332" height="1.90332" transform="translate(24.74316 41.87305) rotate(-90)" style="fill: #07a8eb"/>
  <rect x="28.5498" y="9.5166" width="1.90332" height="1.90332" transform="translate(19.0332 39.96973) rotate(-90)" style="fill: #07a8eb"/>
  <rect x="32.35645" y="1.90332" width="1.90332" height="1.90332" transform="translate(66.61621 5.70996) rotate(180)" style="fill: #07a8eb"/>
  <rect x="34.25977" y="5.70996" width="1.90332" height="1.90332" transform="translate(70.42285 13.32324) rotate(180)" style="fill: #07a8eb"/>
  <rect x="30.45313" y="5.70996" width="1.90332" height="1.90332" transform="translate(62.80957 13.32324) rotate(180)" style="fill: #07a8eb"/>
  <rect x="30.45313" width="1.90332" height="1.90332" transform="translate(62.80957 1.90332) rotate(180)" style="fill: #07a8eb"/>
  <rect x="26.64648" y="5.70996" width="1.90332" height="1.90332" transform="translate(20.93652 34.25977) rotate(-90)" style="fill: #07a8eb"/>
  <rect x="28.5498" y="1.90332" width="1.90332" height="1.90332" transform="translate(26.64648 32.35645) rotate(-90)" style="fill: #07a8eb"/>
  <rect x="24.74316" y="3.80664" width="1.90332" height="1.90332" transform="translate(20.93652 30.45313) rotate(-90)" style="fill: #07a8eb"/>
  <rect x="43.77637" y="1.90332" width="1.90332" height="1.90332" transform="translate(89.45605 5.70996) rotate(180)" style="fill: #07a8eb"/>
  <rect x="41.87305" width="1.90332" height="1.90332" transform="translate(41.87305 43.77637) rotate(-90)" style="fill: #07a8eb"/>
  <rect x="39.96973" width="1.90332" height="1.90332" transform="translate(39.96973 41.87305) rotate(-90)" style="fill: #07a8eb"/>
  <rect x="26.64648" width="1.90332" height="1.90332" transform="translate(55.19629 1.90332) rotate(180)" style="fill: #07a8eb"/>
  <rect x="22.83984" width="1.90332" height="1.90332" transform="translate(22.83984 24.74316) rotate(-90)" style="fill: #07a8eb"/>
  <rect x="26.64648" width="1.90332" height="1.90332" transform="translate(26.64648 28.5498) rotate(-90)" style="fill: #07a8eb"/>
  <rect x="24.74316" width="1.90332" height="1.90332" transform="translate(24.74316 26.64648) rotate(-90)" style="fill: #07a8eb"/>
  <rect x="26.64648" y="15.22656" width="1.90332" height="1.90332" transform="translate(55.19629 32.35645) rotate(180)" style="fill: #07a8eb"/>
  <rect x="22.83984" y="17.12988" width="1.90332" height="1.90332" transform="translate(5.70996 41.87305) rotate(-90)" style="fill: #07a8eb"/>
  <rect x="26.64648" y="15.22656" width="1.90332" height="1.90332" transform="translate(11.41992 43.77637) rotate(-90)" style="fill: #07a8eb"/>
  <rect x="24.74316" y="15.22656" width="1.90332" height="1.90332" transform="translate(9.5166 41.87305) rotate(-90)" style="fill: #07a8eb"/>
  <rect x="47.58301" y="3.80664" width="1.90332" height="1.90332" transform="translate(97.06934 9.5166) rotate(180)" style="fill: #07a8eb"/>
  <rect x="32.35645" y="1.90332" width="1.90332" height="1.90332" transform="translate(66.61621 5.70996) rotate(180)" style="fill: #07a8eb"/>
  <rect x="30.45313" width="1.90332" height="1.90332" transform="translate(30.45313 32.35645) rotate(-90)" style="fill: #07a8eb"/>
  <rect x="41.87305" y="38.06641" width="1.90332" height="1.90332" transform="translate(85.64941 78.03613) rotate(180)" style="fill: #07a8eb"/>
  <rect x="38.06641" y="38.06641" width="1.90332" height="1.90332" transform="translate(0 78.03613) rotate(-90)" style="fill: #07a8eb"/>
  <rect x="30.45313" y="38.06641" width="1.90332" height="1.90332" transform="translate(62.80957 78.03613) rotate(180)" style="fill: #07a8eb"/>
  <rect x="47.58301" y="36.16309" width="1.90332" height="1.90332" transform="translate(97.06934 74.22949) rotate(180)" style="fill: #07a8eb"/>
  <rect x="45.67969" y="38.06641" width="1.90332" height="1.90332" transform="translate(93.2627 78.03613) rotate(180)" style="fill: #07a8eb"/>
  <rect x="39.96973" y="32.35645" width="1.90332" height="1.90332" transform="translate(81.84277 66.61621) rotate(180)" style="fill: #07a8eb"/>
  <rect x="43.77637" y="36.16309" width="1.90332" height="1.90332" transform="translate(7.61328 81.84277) rotate(-90)" style="fill: #07a8eb"/>
  <rect x="39.96973" y="38.06641" width="1.90332" height="1.90332" transform="translate(1.90332 79.93945) rotate(-90)" style="fill: #07a8eb"/>
  <rect x="43.77637" y="30.45313" width="1.90332" height="1.90332" transform="translate(89.45605 62.80957) rotate(180)" style="fill: #07a8eb"/>
  <rect x="45.67969" y="34.25977" width="1.90332" height="1.90332" transform="translate(93.2627 70.42285) rotate(180)" style="fill: #07a8eb"/>
  <rect x="41.87305" y="34.25977" width="1.90332" height="1.90332" transform="translate(85.64941 70.42285) rotate(180)" style="fill: #07a8eb"/>
  <rect x="41.87305" y="28.5498" width="1.90332" height="1.90332" transform="translate(85.64941 59.00293) rotate(180)" style="fill: #07a8eb"/>
  <rect x="38.06641" y="34.25977" width="1.90332" height="1.90332" transform="translate(3.80664 74.22949) rotate(-90)" style="fill: #07a8eb"/>
  <rect x="38.06641" y="28.5498" width="1.90332" height="1.90332" transform="translate(9.5166 68.51953) rotate(-90)" style="fill: #07a8eb"/>
  <rect x="36.16309" y="32.35645" width="1.90332" height="1.90332" transform="translate(3.80664 70.42285) rotate(-90)" style="fill: #07a8eb"/>
  <rect x="36.16309" y="36.16309" width="1.90332" height="1.90332" transform="translate(74.22949 74.22949) rotate(180)" style="fill: #07a8eb"/>
  <rect x="34.25977" y="38.06641" width="1.90332" height="1.90332" transform="translate(70.42285 78.03613) rotate(180)" style="fill: #07a8eb"/>
  <rect x="32.35645" y="36.16309" width="1.90332" height="1.90332" transform="translate(-3.80664 70.42285) rotate(-90)" style="fill: #07a8eb"/>
  <rect x="28.5498" y="38.06641" width="1.90332" height="1.90332" transform="translate(-9.5166 68.51953) rotate(-90)" style="fill: #07a8eb"/>
  <rect x="32.35645" y="30.45313" width="1.90332" height="1.90332" transform="translate(66.61621 62.80957) rotate(180)" style="fill: #07a8eb"/>
  <rect x="34.25977" y="34.25977" width="1.90332" height="1.90332" transform="translate(70.42285 70.42285) rotate(180)" style="fill: #07a8eb"/>
  <rect x="30.45313" y="34.25977" width="1.90332" height="1.90332" transform="translate(62.80957 70.42285) rotate(180)" style="fill: #07a8eb"/>
  <rect x="30.45313" y="28.5498" width="1.90332" height="1.90332" transform="translate(62.80957 59.00293) rotate(180)" style="fill: #07a8eb"/>
  <rect x="26.64648" y="34.25977" width="1.90332" height="1.90332" transform="translate(-7.61328 62.80957) rotate(-90)" style="fill: #07a8eb"/>
  <rect x="28.5498" y="30.45313" width="1.90332" height="1.90332" transform="translate(-1.90332 60.90625) rotate(-90)" style="fill: #07a8eb"/>
  <rect x="24.74316" y="32.35645" width="1.90332" height="1.90332" transform="translate(-7.61328 59.00293) rotate(-90)" style="fill: #07a8eb"/>
  <rect x="47.58301" y="24.74316" width="1.90332" height="1.90332" transform="translate(97.06934 51.38965) rotate(180)" style="fill: #07a8eb"/>
  <rect x="45.67969" y="26.64648" width="1.90332" height="1.90332" transform="translate(93.2627 55.19629) rotate(180)" style="fill: #07a8eb"/>
  <rect x="39.96973" y="20.93652" width="1.90332" height="1.90332" transform="translate(81.84277 43.77637) rotate(180)" style="fill: #07a8eb"/>
  <rect x="43.77637" y="30.45313" width="1.90332" height="1.90332" transform="translate(89.45605 62.80957) rotate(180)" style="fill: #07a8eb"/>
  <rect x="41.87305" y="28.5498" width="1.90332" height="1.90332" transform="translate(13.32324 72.32617) rotate(-90)" style="fill: #07a8eb"/>
  <rect x="43.77637" y="24.74316" width="1.90332" height="1.90332" transform="translate(19.0332 70.42285) rotate(-90)" style="fill: #07a8eb"/>
  <rect x="39.96973" y="28.5498" width="1.90332" height="1.90332" transform="translate(11.41992 70.42285) rotate(-90)" style="fill: #07a8eb"/>
  <rect x="45.67969" y="19.0332" width="1.90332" height="1.90332" transform="translate(93.2627 39.96973) rotate(180)" style="fill: #07a8eb"/>
  <rect x="45.67969" y="22.83984" width="1.90332" height="1.90332" transform="translate(93.2627 47.58301) rotate(180)" style="fill: #07a8eb"/>
  <rect x="41.87305" y="22.83984" width="1.90332" height="1.90332" transform="translate(85.64941 47.58301) rotate(180)" style="fill: #07a8eb"/>
  <rect x="41.87305" y="17.12988" width="1.90332" height="1.90332" transform="translate(85.64941 36.16309) rotate(180)" style="fill: #07a8eb"/>
  <rect x="38.06641" y="22.83984" width="1.90332" height="1.90332" transform="translate(15.22656 62.80957) rotate(-90)" style="fill: #07a8eb"/>
  <rect x="36.16309" y="20.93652" width="1.90332" height="1.90332" transform="translate(15.22656 59.00293) rotate(-90)" style="fill: #07a8eb"/>
  <rect x="36.16309" y="17.12988" width="1.90332" height="1.90332" transform="translate(19.0332 55.19629) rotate(-90)" style="fill: #07a8eb"/>
  <rect x="36.16309" y="24.74316" width="1.90332" height="1.90332" transform="translate(74.22949 51.38965) rotate(180)" style="fill: #07a8eb"/>
  <rect x="34.25977" y="26.64648" width="1.90332" height="1.90332" transform="translate(70.42285 55.19629) rotate(180)" style="fill: #07a8eb"/>
  <rect x="47.58301" y="32.35645" width="1.90332" height="1.90332" transform="translate(97.06934 66.61621) rotate(180)" style="fill: #07a8eb"/>
  <rect x="32.35645" y="30.45313" width="1.90332" height="1.90332" transform="translate(66.61621 62.80957) rotate(180)" style="fill: #07a8eb"/>
  <rect x="32.35645" y="24.74316" width="1.90332" height="1.90332" transform="translate(7.61328 59.00293) rotate(-90)" style="fill: #07a8eb"/>
  <rect x="32.35645" y="19.0332" width="1.90332" height="1.90332" transform="translate(66.61621 39.96973) rotate(180)" style="fill: #07a8eb"/>
  <rect x="34.25977" y="20.93652" width="1.90332" height="1.90332" transform="translate(70.42285 43.77637) rotate(180)" style="fill: #07a8eb"/>
  <rect x="30.45313" y="20.93652" width="1.90332" height="1.90332" transform="translate(62.80957 43.77637) rotate(180)" style="fill: #07a8eb"/>
  <rect x="30.45313" y="17.12988" width="1.90332" height="1.90332" transform="translate(62.80957 36.16309) rotate(180)" style="fill: #07a8eb"/>
  <rect x="26.64648" y="22.83984" width="1.90332" height="1.90332" transform="translate(3.80664 51.38965) rotate(-90)" style="fill: #07a8eb"/>
  <rect x="28.5498" y="19.0332" width="1.90332" height="1.90332" transform="translate(9.5166 49.48633) rotate(-90)" style="fill: #07a8eb"/>
  <rect x="24.74316" y="20.93652" width="1.90332" height="1.90332" transform="translate(3.80664 47.58301) rotate(-90)" style="fill: #07a8eb"/>
  <rect y="19.0332" width="1.90332" height="1.90332" style="fill: #07a8eb"/>
  <rect x="1.90332" y="17.12988" width="1.90332" height="1.90332" style="fill: #07a8eb"/>
  <rect x="7.61328" y="22.83984" width="1.90332" height="1.90332" style="fill: #07a8eb"/>
  <rect x="3.80664" y="19.0332" width="1.90332" height="1.90332" transform="translate(24.74316 15.22656) rotate(90)" style="fill: #07a8eb"/>
  <rect x="7.61328" y="17.12988" width="1.90332" height="1.90332" transform="translate(26.64648 9.5166) rotate(90)" style="fill: #07a8eb"/>
  <rect x="3.80664" y="24.74316" width="1.90332" height="1.90332" style="fill: #07a8eb"/>
  <rect x="1.90332" y="20.93652" width="1.90332" height="1.90332" style="fill: #07a8eb"/>
  <rect x="5.70996" y="19.0332" width="1.90332" height="1.90332" style="fill: #07a8eb"/>
  <rect x="5.70996" y="26.64648" width="1.90332" height="1.90332" style="fill: #07a8eb"/>
  <rect x="9.5166" y="20.93652" width="1.90332" height="1.90332" transform="translate(32.35645 11.41992) rotate(90)" style="fill: #07a8eb"/>
  <rect x="11.41992" y="26.64648" width="1.90332" height="1.90332" transform="translate(39.96973 15.22656) rotate(90)" style="fill: #07a8eb"/>
  <rect x="11.41992" y="22.83984" width="1.90332" height="1.90332" transform="translate(36.16309 11.41992) rotate(90)" style="fill: #07a8eb"/>
  <rect x="11.41992" y="19.0332" width="1.90332" height="1.90332" style="fill: #07a8eb"/>
  <rect x="13.32324" y="17.12988" width="1.90332" height="1.90332" style="fill: #07a8eb"/>
  <rect x="15.22656" y="19.0332" width="1.90332" height="1.90332" transform="translate(36.16309 3.80664) rotate(90)" style="fill: #07a8eb"/>
  <rect x="19.0332" y="17.12988" width="1.90332" height="1.90332" transform="translate(38.06641 -1.90332) rotate(90)" style="fill: #07a8eb"/>
  <rect x="15.22656" y="24.74316" width="1.90332" height="1.90332" style="fill: #07a8eb"/>
  <rect x="13.32324" y="22.83984" width="1.90332" height="1.90332" style="fill: #07a8eb"/>
  <rect x="17.12988" y="20.93652" width="1.90332" height="1.90332" style="fill: #07a8eb"/>
  <rect x="17.12988" y="26.64648" width="1.90332" height="1.90332" style="fill: #07a8eb"/>
  <rect x="20.93652" y="20.93652" width="1.90332" height="1.90332" transform="translate(43.77637) rotate(90)" style="fill: #07a8eb"/>
  <rect x="19.0332" y="24.74316" width="1.90332" height="1.90332" transform="translate(45.67969 5.70996) rotate(90)" style="fill: #07a8eb"/>
  <rect x="22.83984" y="22.83984" width="1.90332" height="1.90332" transform="translate(47.58301) rotate(90)" style="fill: #07a8eb"/>
  <rect y="30.45313" width="1.90332" height="1.90332" style="fill: #07a8eb"/>
  <rect x="1.90332" y="28.5498" width="1.90332" height="1.90332" style="fill: #07a8eb"/>
  <rect x="7.61328" y="34.25977" width="1.90332" height="1.90332" style="fill: #07a8eb"/>
  <rect x="3.80664" y="24.74316" width="1.90332" height="1.90332" style="fill: #07a8eb"/>
  <rect x="3.80664" y="30.45313" width="1.90332" height="1.90332" transform="translate(36.16309 26.64648) rotate(90)" style="fill: #07a8eb"/>
  <rect y="36.16309" width="1.90332" height="1.90332" style="fill: #07a8eb"/>
  <rect y="32.35645" width="1.90332" height="1.90332" style="fill: #07a8eb"/>
  <rect x="5.70996" y="32.35645" width="1.90332" height="1.90332" style="fill: #07a8eb"/>
  <rect x="5.70996" y="38.06641" width="1.90332" height="1.90332" style="fill: #07a8eb"/>
  <rect x="9.5166" y="32.35645" width="1.90332" height="1.90332" transform="translate(43.77637 22.83984) rotate(90)" style="fill: #07a8eb"/>
  <rect x="9.5166" y="38.06641" width="1.90332" height="1.90332" transform="translate(49.48633 28.5498) rotate(90)" style="fill: #07a8eb"/>
  <rect x="11.41992" y="34.25977" width="1.90332" height="1.90332" transform="translate(47.58301 22.83984) rotate(90)" style="fill: #07a8eb"/>
  <rect x="11.41992" y="30.45313" width="1.90332" height="1.90332" style="fill: #07a8eb"/>
  <rect x="13.32324" y="28.5498" width="1.90332" height="1.90332" style="fill: #07a8eb"/>
  <rect y="22.83984" width="1.90332" height="1.90332" style="fill: #07a8eb"/>
  <rect x="15.22656" y="24.74316" width="1.90332" height="1.90332" style="fill: #07a8eb"/>
  <rect x="17.12988" y="26.64648" width="1.90332" height="1.90332" transform="translate(45.67969 9.5166) rotate(90)" style="fill: #07a8eb"/>
  <rect x="15.22656" y="30.45313" width="1.90332" height="1.90332" transform="translate(47.58301 15.22656) rotate(90)" style="fill: #07a8eb"/>
  <rect x="19.0332" y="28.5498" width="1.90332" height="1.90332" transform="translate(49.48633 9.5166) rotate(90)" style="fill: #07a8eb"/>
  <rect x="3.80664" y="36.16309" width="1.90332" height="1.90332" style="fill: #07a8eb"/>
  <rect x="13.32324" y="32.35645" width="1.90332" height="1.90332" style="fill: #07a8eb"/>
  <rect x="17.12988" y="32.35645" width="1.90332" height="1.90332" style="fill: #07a8eb"/>
  <rect x="17.12988" y="38.06641" width="1.90332" height="1.90332" style="fill: #07a8eb"/>
  <rect x="20.93652" y="36.16309" width="1.90332" height="1.90332" transform="translate(59.00293 15.22656) rotate(90)" style="fill: #07a8eb"/>
  <rect x="19.0332" y="30.45313" width="1.90332" height="1.90332" transform="translate(51.38965 11.41992) rotate(90)" style="fill: #07a8eb"/>
  <rect x="22.83984" y="34.25977" width="1.90332" height="1.90332" transform="translate(59.00293 11.41992) rotate(90)" style="fill: #07a8eb"/>
  <rect x="1.90332" y="38.06641" width="1.90332" height="1.90332" style="fill: #07a8eb"/>
  <rect x="1.90332" y="34.25977" width="1.90332" height="1.90332" style="fill: #07a8eb"/>
  <rect x="5.70996" y="36.16309" width="1.90332" height="1.90332" transform="translate(43.77637 30.45312) rotate(90)" style="fill: #07a8eb"/>
  <rect x="7.61328" y="38.06641" width="1.90332" height="1.90332" transform="translate(47.58301 30.45313) rotate(90)" style="fill: #07a8eb"/>
  <rect x="13.32324" y="38.06641" width="1.90332" height="1.90332" style="fill: #07a8eb"/>
  <rect x="22.83984" y="36.16309" width="1.90332" height="1.90332" style="fill: #07a8eb"/>
  <rect x="15.22656" y="34.25977" width="1.90332" height="1.90332" style="fill: #07a8eb"/>
  <rect x="17.12988" y="36.16309" width="1.90332" height="1.90332" transform="translate(55.19629 19.0332) rotate(90)" style="fill: #07a8eb"/>
  <rect x="19.0332" y="38.06641" width="1.90332" height="1.90332" transform="translate(59.00293 19.0332) rotate(90)" style="fill: #07a8eb"/>
  <rect x="20.93652" y="32.35645" width="1.90332" height="1.90332" style="fill: #07a8eb"/>
  <rect x="24.74316" y="30.45313" width="1.90332" height="1.90332" transform="translate(57.09961 5.70996) rotate(90)" style="fill: #07a8eb"/>
  <rect x="20.93652" y="32.35645" width="1.90332" height="1.90332" transform="translate(55.19629 11.41992) rotate(90)" style="fill: #07a8eb"/>
  <rect x="22.83984" y="32.35645" width="1.90332" height="1.90332" transform="translate(57.09961 9.5166) rotate(90)" style="fill: #07a8eb"/>
  <rect x="49.48633" y="1.90332" width="1.90332" height="1.90332" style="fill: #07a8eb"/>
  <rect x="51.38965" width="1.90332" height="1.90332" style="fill: #07a8eb"/>
  <rect x="57.09961" y="5.70996" width="1.90332" height="1.90332" style="fill: #07a8eb"/>
  <rect x="55.19629" width="1.90332" height="1.90332" transform="translate(57.09961 -55.19629) rotate(90)" style="fill: #07a8eb"/>
  <rect x="53.29297" y="1.90332" width="1.90332" height="1.90332" transform="translate(57.09961 -51.38965) rotate(90)" style="fill: #07a8eb"/>
  <rect x="57.09961" width="1.90332" height="1.90332" transform="translate(59.00293 -57.09961) rotate(90)" style="fill: #07a8eb"/>
  <rect x="49.48633" y="7.61328" width="1.90332" height="1.90332" style="fill: #07a8eb"/>
  <rect x="49.48633" y="3.80664" width="1.90332" height="1.90332" style="fill: #07a8eb"/>
  <rect x="55.19629" y="3.80664" width="1.90332" height="1.90332" style="fill: #07a8eb"/>
  <rect x="55.19629" y="9.5166" width="1.90332" height="1.90332" style="fill: #07a8eb"/>
  <rect x="59.00293" y="3.80664" width="1.90332" height="1.90332" transform="translate(64.71289 -55.19629) rotate(90)" style="fill: #07a8eb"/>
  <rect x="59.00293" y="9.5166" width="1.90332" height="1.90332" transform="translate(70.42285 -49.48633) rotate(90)" style="fill: #07a8eb"/>
  <rect x="60.90625" y="5.70996" width="1.90332" height="1.90332" transform="translate(68.51953 -55.19629) rotate(90)" style="fill: #07a8eb"/>
  <rect x="60.90625" y="1.90332" width="1.90332" height="1.90332" style="fill: #07a8eb"/>
  <rect x="62.80957" width="1.90332" height="1.90332" style="fill: #07a8eb"/>
  <rect x="64.71289" y="1.90332" width="1.90332" height="1.90332" transform="translate(68.51953 -62.80957) rotate(90)" style="fill: #07a8eb"/>
  <rect x="68.51953" width="1.90332" height="1.90332" transform="translate(70.42285 -68.51953) rotate(90)" style="fill: #07a8eb"/>
  <rect x="53.29297" y="7.61328" width="1.90332" height="1.90332" style="fill: #07a8eb"/>
  <rect x="62.80957" y="3.80664" width="1.90332" height="1.90332" style="fill: #07a8eb"/>
  <rect x="66.61621" y="3.80664" width="1.90332" height="1.90332" style="fill: #07a8eb"/>
  <rect x="66.61621" y="9.5166" width="1.90332" height="1.90332" style="fill: #07a8eb"/>
  <rect x="70.42285" y="7.61328" width="1.90332" height="1.90332" transform="translate(79.93945 -62.80957) rotate(90)" style="fill: #07a8eb"/>
  <rect x="68.51953" y="1.90332" width="1.90332" height="1.90332" transform="translate(72.32617 -66.61621) rotate(90)" style="fill: #07a8eb"/>
  <rect x="72.32617" y="5.70996" width="1.90332" height="1.90332" transform="translate(79.93945 -66.61621) rotate(90)" style="fill: #07a8eb"/>
  <rect x="49.48633" y="11.41992" width="1.90332" height="1.90332" style="fill: #07a8eb"/>
  <rect x="51.38965" y="9.5166" width="1.90332" height="1.90332" style="fill: #07a8eb"/>
  <rect x="57.09961" y="15.22656" width="1.90332" height="1.90332" style="fill: #07a8eb"/>
  <rect x="51.38965" y="5.70996" width="1.90332" height="1.90332" style="fill: #07a8eb"/>
  <rect x="55.19629" y="7.61328" width="1.90332" height="1.90332" transform="translate(64.71289 -47.58301) rotate(90)" style="fill: #07a8eb"/>
  <rect x="53.29297" y="11.41992" width="1.90332" height="1.90332" transform="translate(66.61621 -41.87305) rotate(90)" style="fill: #07a8eb"/>
  <rect x="57.09961" y="9.5166" width="1.90332" height="1.90332" transform="translate(68.51953 -47.58301) rotate(90)" style="fill: #07a8eb"/>
  <rect x="53.29297" y="17.12988" width="1.90332" height="1.90332" style="fill: #07a8eb"/>
  <rect x="51.38965" y="13.32324" width="1.90332" height="1.90332" style="fill: #07a8eb"/>
  <rect x="55.19629" y="13.32324" width="1.90332" height="1.90332" style="fill: #07a8eb"/>
  <rect x="55.19629" y="19.0332" width="1.90332" height="1.90332" style="fill: #07a8eb"/>
  <rect x="59.00293" y="13.32324" width="1.90332" height="1.90332" transform="translate(74.22949 -45.67969) rotate(90)" style="fill: #07a8eb"/>
  <rect x="59.00293" y="19.0332" width="1.90332" height="1.90332" transform="translate(79.93945 -39.96973) rotate(90)" style="fill: #07a8eb"/>
  <rect x="60.90625" y="15.22656" width="1.90332" height="1.90332" transform="translate(78.03613 -45.67969) rotate(90)" style="fill: #07a8eb"/>
  <rect x="60.90625" y="11.41992" width="1.90332" height="1.90332" style="fill: #07a8eb"/>
  <rect x="62.80957" y="9.5166" width="1.90332" height="1.90332" style="fill: #07a8eb"/>
  <rect x="72.32617" y="7.61328" width="1.90332" height="1.90332" style="fill: #07a8eb"/>
  <rect x="64.71289" y="5.70996" width="1.90332" height="1.90332" style="fill: #07a8eb"/>
  <rect x="66.61621" y="7.61328" width="1.90332" height="1.90332" transform="translate(76.13281 -59.00293) rotate(90)" style="fill: #07a8eb"/>
  <rect x="64.71289" y="11.41992" width="1.90332" height="1.90332" transform="translate(78.03613 -53.29297) rotate(90)" style="fill: #07a8eb"/>
  <rect x="68.51953" y="9.5166" width="1.90332" height="1.90332" transform="translate(79.93945 -59.00293) rotate(90)" style="fill: #07a8eb"/>
  <rect x="64.71289" y="17.12988" width="1.90332" height="1.90332" style="fill: #07a8eb"/>
  <rect x="62.80957" y="13.32324" width="1.90332" height="1.90332" style="fill: #07a8eb"/>
  <rect x="66.61621" y="13.32324" width="1.90332" height="1.90332" style="fill: #07a8eb"/>
  <rect x="66.61621" y="19.0332" width="1.90332" height="1.90332" style="fill: #07a8eb"/>
  <rect x="70.42285" y="13.32324" width="1.90332" height="1.90332" transform="translate(85.64941 -57.09961) rotate(90)" style="fill: #07a8eb"/>
  <rect x="68.51953" y="17.12988" width="1.90332" height="1.90332" transform="translate(87.55273 -51.38965) rotate(90)" style="fill: #07a8eb"/>
  <rect x="72.32617" y="15.22656" width="1.90332" height="1.90332" transform="translate(89.45605 -57.09961) rotate(90)" style="fill: #07a8eb"/>
  <rect x="49.48633" y="22.83984" width="1.90332" height="1.90332" style="fill: #07a8eb"/>
  <rect x="51.38965" y="20.93652" width="1.90332" height="1.90332" style="fill: #07a8eb"/>
  <rect x="57.09961" y="26.64648" width="1.90332" height="1.90332" style="fill: #07a8eb"/>
  <rect x="53.29297" y="17.12988" width="1.90332" height="1.90332" style="fill: #07a8eb"/>
  <rect x="55.19629" y="19.0332" width="1.90332" height="1.90332" transform="translate(76.13281 -36.16309) rotate(90)" style="fill: #07a8eb"/>
  <rect x="53.29297" y="22.83984" width="1.90332" height="1.90332" transform="translate(78.03613 -30.45313) rotate(90)" style="fill: #07a8eb"/>
  <rect x="57.09961" y="19.0332" width="1.90332" height="1.90332" transform="translate(78.03613 -38.06641) rotate(90)" style="fill: #07a8eb"/>
  <rect x="51.38965" y="28.5498" width="1.90332" height="1.90332" style="fill: #07a8eb"/>
  <rect x="51.38965" y="24.74316" width="1.90332" height="1.90332" style="fill: #07a8eb"/>
  <rect x="55.19629" y="24.74316" width="1.90332" height="1.90332" style="fill: #07a8eb"/>
  <rect x="55.19629" y="30.45313" width="1.90332" height="1.90332" style="fill: #07a8eb"/>
  <rect x="59.00293" y="24.74316" width="1.90332" height="1.90332" transform="translate(85.64941 -34.25977) rotate(90)" style="fill: #07a8eb"/>
  <rect x="60.90625" y="26.64648" width="1.90332" height="1.90332" transform="translate(89.45605 -34.25977) rotate(90)" style="fill: #07a8eb"/>
  <rect x="60.90625" y="30.45313" width="1.90332" height="1.90332" transform="translate(93.2627 -30.45313) rotate(90)" style="fill: #07a8eb"/>
  <rect x="60.90625" y="22.83984" width="1.90332" height="1.90332" style="fill: #07a8eb"/>
  <rect x="62.80957" y="20.93652" width="1.90332" height="1.90332" style="fill: #07a8eb"/>
  <rect x="49.48633" y="15.22656" width="1.90332" height="1.90332" style="fill: #07a8eb"/>
  <rect x="64.71289" y="17.12988" width="1.90332" height="1.90332" style="fill: #07a8eb"/>
  <rect x="66.61621" y="19.0332" width="1.90332" height="1.90332" transform="translate(87.55273 -47.58301) rotate(90)" style="fill: #07a8eb"/>
  <rect x="64.71289" y="22.83984" width="1.90332" height="1.90332" transform="translate(89.45605 -41.87305) rotate(90)" style="fill: #07a8eb"/>
  <rect x="68.51953" y="20.93652" width="1.90332" height="1.90332" transform="translate(91.35938 -47.58301) rotate(90)" style="fill: #07a8eb"/>
  <rect x="64.71289" y="28.5498" width="1.90332" height="1.90332" style="fill: #07a8eb"/>
  <rect x="62.80957" y="26.64648" width="1.90332" height="1.90332" style="fill: #07a8eb"/>
  <rect x="66.61621" y="26.64648" width="1.90332" height="1.90332" style="fill: #07a8eb"/>
  <rect x="66.61621" y="30.45313" width="1.90332" height="1.90332" style="fill: #07a8eb"/>
  <rect x="70.42285" y="24.74316" width="1.90332" height="1.90332" transform="translate(97.06934 -45.67969) rotate(90)" style="fill: #07a8eb"/>
  <rect x="68.51953" y="28.5498" width="1.90332" height="1.90332" transform="translate(98.97266 -39.96973) rotate(90)" style="fill: #07a8eb"/>
  <rect x="72.32617" y="26.64648" width="1.90332" height="1.90332" transform="translate(100.87598 -45.67969) rotate(90)" style="fill: #07a8eb"/>
  <rect x="97.06934" y="28.5498" width="1.90332" height="1.90332" transform="translate(196.04199 59.00293) rotate(180)" style="fill: #07a8eb"/>
  <rect x="95.16602" y="30.45313" width="1.90332" height="1.90332" transform="translate(192.23535 62.80957) rotate(180)" style="fill: #07a8eb"/>
  <rect x="89.45605" y="24.74316" width="1.90332" height="1.90332" transform="translate(180.81543 51.38965) rotate(180)" style="fill: #07a8eb"/>
  <rect x="93.2627" y="28.5498" width="1.90332" height="1.90332" transform="translate(64.71289 123.71582) rotate(-90)" style="fill: #07a8eb"/>
  <rect x="89.45605" y="30.45313" width="1.90332" height="1.90332" transform="translate(59.00293 121.8125) rotate(-90)" style="fill: #07a8eb"/>
  <rect x="93.2627" y="22.83984" width="1.90332" height="1.90332" transform="translate(188.42871 47.58301) rotate(180)" style="fill: #07a8eb"/>
  <rect x="95.16602" y="26.64648" width="1.90332" height="1.90332" transform="translate(192.23535 55.19629) rotate(180)" style="fill: #07a8eb"/>
  <rect x="91.35938" y="28.5498" width="1.90332" height="1.90332" transform="translate(184.62207 59.00293) rotate(180)" style="fill: #07a8eb"/>
  <rect x="87.55273" y="26.64648" width="1.90332" height="1.90332" transform="translate(60.90625 116.10254) rotate(-90)" style="fill: #07a8eb"/>
  <rect x="85.64941" y="20.93652" width="1.90332" height="1.90332" transform="translate(64.71289 108.48926) rotate(-90)" style="fill: #07a8eb"/>
  <rect x="85.64941" y="24.74316" width="1.90332" height="1.90332" transform="translate(60.90625 112.2959) rotate(-90)" style="fill: #07a8eb"/>
  <rect x="85.64941" y="28.5498" width="1.90332" height="1.90332" transform="translate(173.20215 59.00293) rotate(180)" style="fill: #07a8eb"/>
  <rect x="83.74609" y="30.45313" width="1.90332" height="1.90332" transform="translate(169.39551 62.80957) rotate(180)" style="fill: #07a8eb"/>
  <rect x="81.84277" y="28.5498" width="1.90332" height="1.90332" transform="translate(53.29297 112.2959) rotate(-90)" style="fill: #07a8eb"/>
  <rect x="78.03613" y="30.45313" width="1.90332" height="1.90332" transform="translate(47.58301 110.39258) rotate(-90)" style="fill: #07a8eb"/>
  <rect x="81.84277" y="22.83984" width="1.90332" height="1.90332" transform="translate(165.58887 47.58301) rotate(180)" style="fill: #07a8eb"/>
  <rect x="83.74609" y="24.74316" width="1.90332" height="1.90332" transform="translate(169.39551 51.38965) rotate(180)" style="fill: #07a8eb"/>
  <rect x="79.93945" y="26.64648" width="1.90332" height="1.90332" transform="translate(161.78223 55.19629) rotate(180)" style="fill: #07a8eb"/>
  <rect x="79.93945" y="20.93652" width="1.90332" height="1.90332" transform="translate(161.78223 43.77637) rotate(180)" style="fill: #07a8eb"/>
  <rect x="76.13281" y="26.64648" width="1.90332" height="1.90332" transform="translate(49.48633 104.68262) rotate(-90)" style="fill: #07a8eb"/>
  <rect x="78.03613" y="22.83984" width="1.90332" height="1.90332" transform="translate(55.19629 102.7793) rotate(-90)" style="fill: #07a8eb"/>
  <rect x="74.22949" y="24.74316" width="1.90332" height="1.90332" transform="translate(49.48633 100.87598) rotate(-90)" style="fill: #07a8eb"/>
  <rect x="97.06934" y="17.12988" width="1.90332" height="1.90332" transform="translate(196.04199 36.16309) rotate(180)" style="fill: #07a8eb"/>
  <rect x="95.16602" y="19.0332" width="1.90332" height="1.90332" transform="translate(192.23535 39.96973) rotate(180)" style="fill: #07a8eb"/>
  <rect x="89.45605" y="13.32324" width="1.90332" height="1.90332" transform="translate(180.81543 28.5498) rotate(180)" style="fill: #07a8eb"/>
  <rect x="93.2627" y="22.83984" width="1.90332" height="1.90332" transform="translate(188.42871 47.58301) rotate(180)" style="fill: #07a8eb"/>
  <rect x="91.35938" y="19.0332" width="1.90332" height="1.90332" transform="translate(72.32617 112.2959) rotate(-90)" style="fill: #07a8eb"/>
  <rect x="93.2627" y="17.12988" width="1.90332" height="1.90332" transform="translate(76.13281 112.2959) rotate(-90)" style="fill: #07a8eb"/>
  <rect x="89.45605" y="19.0332" width="1.90332" height="1.90332" transform="translate(70.42285 110.39258) rotate(-90)" style="fill: #07a8eb"/>
  <rect x="97.06934" y="11.41992" width="1.90332" height="1.90332" transform="translate(196.04199 24.74316) rotate(180)" style="fill: #07a8eb"/>
  <rect x="97.06934" y="15.22656" width="1.90332" height="1.90332" transform="translate(196.04199 32.35645) rotate(180)" style="fill: #07a8eb"/>
  <rect x="91.35938" y="15.22656" width="1.90332" height="1.90332" transform="translate(184.62207 32.35645) rotate(180)" style="fill: #07a8eb"/>
  <rect x="91.35938" y="9.5166" width="1.90332" height="1.90332" transform="translate(184.62207 20.93652) rotate(180)" style="fill: #07a8eb"/>
  <rect x="87.55273" y="15.22656" width="1.90332" height="1.90332" transform="translate(72.32617 104.68262) rotate(-90)" style="fill: #07a8eb"/>
  <rect x="87.55273" y="9.5166" width="1.90332" height="1.90332" transform="translate(78.03613 98.97266) rotate(-90)" style="fill: #07a8eb"/>
  <rect x="85.64941" y="13.32324" width="1.90332" height="1.90332" transform="translate(72.32617 100.87598) rotate(-90)" style="fill: #07a8eb"/>
  <rect x="85.64941" y="17.12988" width="1.90332" height="1.90332" transform="translate(173.20215 36.16309) rotate(180)" style="fill: #07a8eb"/>
  <rect x="83.74609" y="19.0332" width="1.90332" height="1.90332" transform="translate(169.39551 39.96973) rotate(180)" style="fill: #07a8eb"/>
  <rect x="97.06934" y="24.74316" width="1.90332" height="1.90332" transform="translate(196.04199 51.38965) rotate(180)" style="fill: #07a8eb"/>
  <rect x="81.84277" y="22.83984" width="1.90332" height="1.90332" transform="translate(165.58887 47.58301) rotate(180)" style="fill: #07a8eb"/>
  <rect x="79.93945" y="20.93652" width="1.90332" height="1.90332" transform="translate(59.00293 102.7793) rotate(-90)" style="fill: #07a8eb"/>
  <rect x="81.84277" y="17.12988" width="1.90332" height="1.90332" transform="translate(64.71289 100.87598) rotate(-90)" style="fill: #07a8eb"/>
  <rect x="78.03613" y="19.0332" width="1.90332" height="1.90332" transform="translate(59.00293 98.97266) rotate(-90)" style="fill: #07a8eb"/>
  <rect x="93.2627" y="11.41992" width="1.90332" height="1.90332" transform="translate(188.42871 24.74316) rotate(180)" style="fill: #07a8eb"/>
  <rect x="83.74609" y="15.22656" width="1.90332" height="1.90332" transform="translate(169.39551 32.35645) rotate(180)" style="fill: #07a8eb"/>
  <rect x="79.93945" y="15.22656" width="1.90332" height="1.90332" transform="translate(161.78223 32.35645) rotate(180)" style="fill: #07a8eb"/>
  <rect x="79.93945" y="9.5166" width="1.90332" height="1.90332" transform="translate(161.78223 20.93652) rotate(180)" style="fill: #07a8eb"/>
  <rect x="76.13281" y="11.41992" width="1.90332" height="1.90332" transform="translate(64.71289 89.45605) rotate(-90)" style="fill: #07a8eb"/>
  <rect x="78.03613" y="17.12988" width="1.90332" height="1.90332" transform="translate(60.90625 97.06934) rotate(-90)" style="fill: #07a8eb"/>
  <rect x="74.22949" y="13.32324" width="1.90332" height="1.90332" transform="translate(60.90625 89.45605) rotate(-90)" style="fill: #07a8eb"/>
  <rect x="97.06934" y="7.61328" width="1.90332" height="1.90332" transform="translate(196.04199 17.12988) rotate(180)" style="fill: #07a8eb"/>
  <rect x="95.16602" y="9.5166" width="1.90332" height="1.90332" transform="translate(192.23535 20.93652) rotate(180)" style="fill: #07a8eb"/>
  <rect x="89.45605" y="3.80664" width="1.90332" height="1.90332" transform="translate(180.81543 9.5166) rotate(180)" style="fill: #07a8eb"/>
  <rect x="95.16602" y="13.32324" width="1.90332" height="1.90332" transform="translate(192.23535 28.5498) rotate(180)" style="fill: #07a8eb"/>
  <rect x="91.35938" y="11.41992" width="1.90332" height="1.90332" transform="translate(79.93945 104.68262) rotate(-90)" style="fill: #07a8eb"/>
  <rect x="93.2627" y="7.61328" width="1.90332" height="1.90332" transform="translate(85.64941 102.7793) rotate(-90)" style="fill: #07a8eb"/>
  <rect x="89.45605" y="9.5166" width="1.90332" height="1.90332" transform="translate(79.93945 100.87598) rotate(-90)" style="fill: #07a8eb"/>
  <rect x="93.2627" y="1.90332" width="1.90332" height="1.90332" transform="translate(188.42871 5.70996) rotate(180)" style="fill: #07a8eb"/>
  <rect x="95.16602" y="5.70996" width="1.90332" height="1.90332" transform="translate(192.23535 13.32324) rotate(180)" style="fill: #07a8eb"/>
  <rect x="91.35938" y="5.70996" width="1.90332" height="1.90332" transform="translate(184.62207 13.32324) rotate(180)" style="fill: #07a8eb"/>
  <rect x="91.35938" width="1.90332" height="1.90332" transform="translate(184.62207 1.90332) rotate(180)" style="fill: #07a8eb"/>
  <rect x="87.55273" y="5.70996" width="1.90332" height="1.90332" transform="translate(81.84277 95.16602) rotate(-90)" style="fill: #07a8eb"/>
  <rect x="87.55273" width="1.90332" height="1.90332" transform="translate(87.55273 89.45605) rotate(-90)" style="fill: #07a8eb"/>
  <rect x="85.64941" y="3.80664" width="1.90332" height="1.90332" transform="translate(81.84277 91.35938) rotate(-90)" style="fill: #07a8eb"/>
  <rect x="85.64941" y="7.61328" width="1.90332" height="1.90332" transform="translate(173.20215 17.12988) rotate(180)" style="fill: #07a8eb"/>
  <rect x="83.74609" y="9.5166" width="1.90332" height="1.90332" transform="translate(169.39551 20.93652) rotate(180)" style="fill: #07a8eb"/>
  <rect x="74.22949" y="11.41992" width="1.90332" height="1.90332" transform="translate(150.3623 24.74316) rotate(180)" style="fill: #07a8eb"/>
  <rect x="81.84277" y="13.32324" width="1.90332" height="1.90332" transform="translate(165.58887 28.5498) rotate(180)" style="fill: #07a8eb"/>
  <rect x="79.93945" y="11.41992" width="1.90332" height="1.90332" transform="translate(68.51953 93.2627) rotate(-90)" style="fill: #07a8eb"/>
  <rect x="81.84277" y="7.61328" width="1.90332" height="1.90332" transform="translate(74.22949 91.35938) rotate(-90)" style="fill: #07a8eb"/>
  <rect x="78.03613" y="9.5166" width="1.90332" height="1.90332" transform="translate(68.51953 89.45605) rotate(-90)" style="fill: #07a8eb"/>
  <rect x="81.84277" y="1.90332" width="1.90332" height="1.90332" transform="translate(165.58887 5.70996) rotate(180)" style="fill: #07a8eb"/>
  <rect x="83.74609" y="5.70996" width="1.90332" height="1.90332" transform="translate(169.39551 13.32324) rotate(180)" style="fill: #07a8eb"/>
  <rect x="79.93945" y="5.70996" width="1.90332" height="1.90332" transform="translate(161.78223 13.32324) rotate(180)" style="fill: #07a8eb"/>
  <rect x="79.93945" width="1.90332" height="1.90332" transform="translate(161.78223 1.90332) rotate(180)" style="fill: #07a8eb"/>
  <rect x="76.13281" y="5.70996" width="1.90332" height="1.90332" transform="translate(70.42285 83.74609) rotate(-90)" style="fill: #07a8eb"/>
  <rect x="78.03613" y="1.90332" width="1.90332" height="1.90332" transform="translate(76.13281 81.84277) rotate(-90)" style="fill: #07a8eb"/>
  <rect x="74.22949" y="3.80664" width="1.90332" height="1.90332" transform="translate(70.42285 79.93945) rotate(-90)" style="fill: #07a8eb"/>
  <rect x="93.2627" y="1.90332" width="1.90332" height="1.90332" transform="translate(188.42871 5.70996) rotate(180)" style="fill: #07a8eb"/>
  <rect x="91.35938" width="1.90332" height="1.90332" transform="translate(91.35938 93.2627) rotate(-90)" style="fill: #07a8eb"/>
  <rect x="89.45605" width="1.90332" height="1.90332" transform="translate(89.45605 91.35938) rotate(-90)" style="fill: #07a8eb"/>
  <rect x="76.13281" width="1.90332" height="1.90332" transform="translate(154.16895 1.90332) rotate(180)" style="fill: #07a8eb"/>
  <rect x="72.32617" width="1.90332" height="1.90332" transform="translate(72.32617 74.22949) rotate(-90)" style="fill: #07a8eb"/>
  <rect x="76.13281" width="1.90332" height="1.90332" transform="translate(76.13281 78.03613) rotate(-90)" style="fill: #07a8eb"/>
  <rect x="74.22949" width="1.90332" height="1.90332" transform="translate(74.22949 76.13281) rotate(-90)" style="fill: #07a8eb"/>
  <rect x="76.13281" y="15.22656" width="1.90332" height="1.90332" transform="translate(154.16895 32.35645) rotate(180)" style="fill: #07a8eb"/>
  <rect x="72.32617" y="17.12988" width="1.90332" height="1.90332" transform="translate(55.19629 91.35938) rotate(-90)" style="fill: #07a8eb"/>
  <rect x="76.13281" y="15.22656" width="1.90332" height="1.90332" transform="translate(60.90625 93.2627) rotate(-90)" style="fill: #07a8eb"/>
  <rect x="74.22949" y="15.22656" width="1.90332" height="1.90332" transform="translate(59.00293 91.35938) rotate(-90)" style="fill: #07a8eb"/>
  <rect x="97.06934" y="3.80664" width="1.90332" height="1.90332" transform="translate(196.04199 9.5166) rotate(180)" style="fill: #07a8eb"/>
  <rect x="81.84277" y="1.90332" width="1.90332" height="1.90332" transform="translate(165.58887 5.70996) rotate(180)" style="fill: #07a8eb"/>
  <rect x="79.93945" width="1.90332" height="1.90332" transform="translate(79.93945 81.84277) rotate(-90)" style="fill: #07a8eb"/>
  <rect x="91.35938" y="38.06641" width="1.90332" height="1.90332" transform="translate(184.62207 78.03613) rotate(180)" style="fill: #07a8eb"/>
  <rect x="87.55273" y="38.06641" width="1.90332" height="1.90332" transform="translate(49.48633 127.52246) rotate(-90)" style="fill: #07a8eb"/>
  <rect x="79.93945" y="38.06641" width="1.90332" height="1.90332" transform="translate(161.78223 78.03613) rotate(180)" style="fill: #07a8eb"/>
  <rect x="97.06934" y="36.16309" width="1.90332" height="1.90332" transform="translate(196.04199 74.22949) rotate(180)" style="fill: #07a8eb"/>
  <rect x="95.16602" y="38.06641" width="1.90332" height="1.90332" transform="translate(192.23535 78.03613) rotate(180)" style="fill: #07a8eb"/>
  <rect x="89.45605" y="32.35645" width="1.90332" height="1.90332" transform="translate(180.81543 66.61621) rotate(180)" style="fill: #07a8eb"/>
  <rect x="93.2627" y="36.16309" width="1.90332" height="1.90332" transform="translate(57.09961 131.3291) rotate(-90)" style="fill: #07a8eb"/>
  <rect x="89.45605" y="38.06641" width="1.90332" height="1.90332" transform="translate(51.38965 129.42578) rotate(-90)" style="fill: #07a8eb"/>
  <rect x="93.2627" y="30.45313" width="1.90332" height="1.90332" transform="translate(188.42871 62.80957) rotate(180)" style="fill: #07a8eb"/>
  <rect x="95.16602" y="34.25977" width="1.90332" height="1.90332" transform="translate(192.23535 70.42285) rotate(180)" style="fill: #07a8eb"/>
  <rect x="91.35938" y="34.25977" width="1.90332" height="1.90332" transform="translate(184.62207 70.42285) rotate(180)" style="fill: #07a8eb"/>
  <rect x="91.35938" y="28.5498" width="1.90332" height="1.90332" transform="translate(184.62207 59.00293) rotate(180)" style="fill: #07a8eb"/>
  <rect x="87.55273" y="34.25977" width="1.90332" height="1.90332" transform="translate(53.29297 123.71582) rotate(-90)" style="fill: #07a8eb"/>
  <rect x="87.55273" y="28.5498" width="1.90332" height="1.90332" transform="translate(59.00293 118.00586) rotate(-90)" style="fill: #07a8eb"/>
  <rect x="85.64941" y="32.35645" width="1.90332" height="1.90332" transform="translate(53.29297 119.90918) rotate(-90)" style="fill: #07a8eb"/>
  <rect x="85.64941" y="36.16309" width="1.90332" height="1.90332" transform="translate(173.20215 74.22949) rotate(180)" style="fill: #07a8eb"/>
  <rect x="83.74609" y="38.06641" width="1.90332" height="1.90332" transform="translate(169.39551 78.03613) rotate(180)" style="fill: #07a8eb"/>
  <rect x="81.84277" y="36.16309" width="1.90332" height="1.90332" transform="translate(45.67969 119.90918) rotate(-90)" style="fill: #07a8eb"/>
  <rect x="78.03613" y="38.06641" width="1.90332" height="1.90332" transform="translate(39.96973 118.00586) rotate(-90)" style="fill: #07a8eb"/>
  <rect x="81.84277" y="30.45313" width="1.90332" height="1.90332" transform="translate(165.58887 62.80957) rotate(180)" style="fill: #07a8eb"/>
  <rect x="83.74609" y="34.25977" width="1.90332" height="1.90332" transform="translate(169.39551 70.42285) rotate(180)" style="fill: #07a8eb"/>
  <rect x="79.93945" y="34.25977" width="1.90332" height="1.90332" transform="translate(161.78223 70.42285) rotate(180)" style="fill: #07a8eb"/>
  <rect x="79.93945" y="28.5498" width="1.90332" height="1.90332" transform="translate(161.78223 59.00293) rotate(180)" style="fill: #07a8eb"/>
  <rect x="76.13281" y="34.25977" width="1.90332" height="1.90332" transform="translate(41.87305 112.2959) rotate(-90)" style="fill: #07a8eb"/>
  <rect x="78.03613" y="30.45313" width="1.90332" height="1.90332" transform="translate(47.58301 110.39258) rotate(-90)" style="fill: #07a8eb"/>
  <rect x="74.22949" y="32.35645" width="1.90332" height="1.90332" transform="translate(41.87305 108.48926) rotate(-90)" style="fill: #07a8eb"/>
  <rect x="97.06934" y="24.74316" width="1.90332" height="1.90332" transform="translate(196.04199 51.38965) rotate(180)" style="fill: #07a8eb"/>
  <rect x="95.16602" y="26.64648" width="1.90332" height="1.90332" transform="translate(192.23535 55.19629) rotate(180)" style="fill: #07a8eb"/>
  <rect x="89.45605" y="20.93652" width="1.90332" height="1.90332" transform="translate(180.81543 43.77637) rotate(180)" style="fill: #07a8eb"/>
  <rect x="93.2627" y="30.45313" width="1.90332" height="1.90332" transform="translate(188.42871 62.80957) rotate(180)" style="fill: #07a8eb"/>
  <rect x="91.35938" y="28.5498" width="1.90332" height="1.90332" transform="translate(62.80957 121.8125) rotate(-90)" style="fill: #07a8eb"/>
  <rect x="93.2627" y="24.74316" width="1.90332" height="1.90332" transform="translate(68.51953 119.90918) rotate(-90)" style="fill: #07a8eb"/>
  <rect x="89.45605" y="28.5498" width="1.90332" height="1.90332" transform="translate(60.90625 119.90918) rotate(-90)" style="fill: #07a8eb"/>
  <rect x="95.16602" y="19.0332" width="1.90332" height="1.90332" transform="translate(192.23535 39.96973) rotate(180)" style="fill: #07a8eb"/>
  <rect x="95.16602" y="22.83984" width="1.90332" height="1.90332" transform="translate(192.23535 47.58301) rotate(180)" style="fill: #07a8eb"/>
  <rect x="91.35938" y="22.83984" width="1.90332" height="1.90332" transform="translate(184.62207 47.58301) rotate(180)" style="fill: #07a8eb"/>
  <rect x="91.35938" y="17.12988" width="1.90332" height="1.90332" transform="translate(184.62207 36.16309) rotate(180)" style="fill: #07a8eb"/>
  <rect x="87.55273" y="22.83984" width="1.90332" height="1.90332" transform="translate(64.71289 112.2959) rotate(-90)" style="fill: #07a8eb"/>
  <rect x="85.64941" y="20.93652" width="1.90332" height="1.90332" transform="translate(64.71289 108.48926) rotate(-90)" style="fill: #07a8eb"/>
  <rect x="85.64941" y="17.12988" width="1.90332" height="1.90332" transform="translate(68.51953 104.68262) rotate(-90)" style="fill: #07a8eb"/>
  <rect x="85.64941" y="24.74316" width="1.90332" height="1.90332" transform="translate(173.20215 51.38965) rotate(180)" style="fill: #07a8eb"/>
  <rect x="83.74609" y="26.64648" width="1.90332" height="1.90332" transform="translate(169.39551 55.19629) rotate(180)" style="fill: #07a8eb"/>
  <rect x="97.06934" y="32.35645" width="1.90332" height="1.90332" transform="translate(196.04199 66.61621) rotate(180)" style="fill: #07a8eb"/>
  <rect x="81.84277" y="30.45313" width="1.90332" height="1.90332" transform="translate(165.58887 62.80957) rotate(180)" style="fill: #07a8eb"/>
  <rect x="81.84277" y="24.74316" width="1.90332" height="1.90332" transform="translate(57.09961 108.48926) rotate(-90)" style="fill: #07a8eb"/>
  <rect x="81.84277" y="19.0332" width="1.90332" height="1.90332" transform="translate(165.58887 39.96973) rotate(180)" style="fill: #07a8eb"/>
  <rect x="83.74609" y="20.93652" width="1.90332" height="1.90332" transform="translate(169.39551 43.77637) rotate(180)" style="fill: #07a8eb"/>
  <rect x="79.93945" y="20.93652" width="1.90332" height="1.90332" transform="translate(161.78223 43.77637) rotate(180)" style="fill: #07a8eb"/>
  <rect x="79.93945" y="17.12988" width="1.90332" height="1.90332" transform="translate(161.78223 36.16309) rotate(180)" style="fill: #07a8eb"/>
  <rect x="76.13281" y="22.83984" width="1.90332" height="1.90332" transform="translate(53.29297 100.87598) rotate(-90)" style="fill: #07a8eb"/>
  <rect x="78.03613" y="19.0332" width="1.90332" height="1.90332" transform="translate(59.00293 98.97266) rotate(-90)" style="fill: #07a8eb"/>
  <rect x="74.22949" y="20.93652" width="1.90332" height="1.90332" transform="translate(53.29297 97.06934) rotate(-90)" style="fill: #07a8eb"/>
  <rect x="49.48633" y="19.0332" width="1.90332" height="1.90332" style="fill: #07a8eb"/>
  <rect x="51.38965" y="17.12988" width="1.90332" height="1.90332" style="fill: #07a8eb"/>
  <rect x="57.09961" y="22.83984" width="1.90332" height="1.90332" style="fill: #07a8eb"/>
  <rect x="53.29297" y="19.0332" width="1.90332" height="1.90332" transform="translate(74.22949 -34.25977) rotate(90)" style="fill: #07a8eb"/>
  <rect x="57.09961" y="17.12988" width="1.90332" height="1.90332" transform="translate(76.13281 -39.96973) rotate(90)" style="fill: #07a8eb"/>
  <rect x="53.29297" y="24.74316" width="1.90332" height="1.90332" style="fill: #07a8eb"/>
  <rect x="51.38965" y="20.93652" width="1.90332" height="1.90332" style="fill: #07a8eb"/>
  <rect x="55.19629" y="19.0332" width="1.90332" height="1.90332" style="fill: #07a8eb"/>
  <rect x="55.19629" y="26.64648" width="1.90332" height="1.90332" style="fill: #07a8eb"/>
  <rect x="59.00293" y="20.93652" width="1.90332" height="1.90332" transform="translate(81.84277 -38.06641) rotate(90)" style="fill: #07a8eb"/>
  <rect x="60.90625" y="26.64648" width="1.90332" height="1.90332" transform="translate(89.45605 -34.25977) rotate(90)" style="fill: #07a8eb"/>
  <rect x="60.90625" y="22.83984" width="1.90332" height="1.90332" transform="translate(85.64941 -38.06641) rotate(90)" style="fill: #07a8eb"/>
  <rect x="60.90625" y="19.0332" width="1.90332" height="1.90332" style="fill: #07a8eb"/>
  <rect x="62.80957" y="17.12988" width="1.90332" height="1.90332" style="fill: #07a8eb"/>
  <rect x="64.71289" y="19.0332" width="1.90332" height="1.90332" transform="translate(85.64941 -45.67969) rotate(90)" style="fill: #07a8eb"/>
  <rect x="68.51953" y="17.12988" width="1.90332" height="1.90332" transform="translate(87.55273 -51.38965) rotate(90)" style="fill: #07a8eb"/>
  <rect x="64.71289" y="24.74316" width="1.90332" height="1.90332" style="fill: #07a8eb"/>
  <rect x="62.80957" y="22.83984" width="1.90332" height="1.90332" style="fill: #07a8eb"/>
  <rect x="66.61621" y="20.93652" width="1.90332" height="1.90332" style="fill: #07a8eb"/>
  <rect x="66.61621" y="26.64648" width="1.90332" height="1.90332" style="fill: #07a8eb"/>
  <rect x="70.42285" y="20.93652" width="1.90332" height="1.90332" transform="translate(93.2627 -49.48633) rotate(90)" style="fill: #07a8eb"/>
  <rect x="68.51953" y="24.74316" width="1.90332" height="1.90332" transform="translate(95.16602 -43.77637) rotate(90)" style="fill: #07a8eb"/>
  <rect x="72.32617" y="22.83984" width="1.90332" height="1.90332" transform="translate(97.06934 -49.48633) rotate(90)" style="fill: #07a8eb"/>
  <rect x="49.48633" y="30.45313" width="1.90332" height="1.90332" style="fill: #07a8eb"/>
  <rect x="51.38965" y="28.5498" width="1.90332" height="1.90332" style="fill: #07a8eb"/>
  <rect x="57.09961" y="34.25977" width="1.90332" height="1.90332" style="fill: #07a8eb"/>
  <rect x="53.29297" y="24.74316" width="1.90332" height="1.90332" style="fill: #07a8eb"/>
  <rect x="53.29297" y="30.45313" width="1.90332" height="1.90332" transform="translate(85.64941 -22.83984) rotate(90)" style="fill: #07a8eb"/>
  <rect x="49.48633" y="36.16309" width="1.90332" height="1.90332" style="fill: #07a8eb"/>
  <rect x="49.48633" y="32.35645" width="1.90332" height="1.90332" style="fill: #07a8eb"/>
  <rect x="55.19629" y="32.35645" width="1.90332" height="1.90332" style="fill: #07a8eb"/>
  <rect x="55.19629" y="38.06641" width="1.90332" height="1.90332" style="fill: #07a8eb"/>
  <rect x="59.00293" y="32.35645" width="1.90332" height="1.90332" transform="translate(93.2627 -26.64648) rotate(90)" style="fill: #07a8eb"/>
  <rect x="59.00293" y="38.06641" width="1.90332" height="1.90332" transform="translate(98.97266 -20.93652) rotate(90)" style="fill: #07a8eb"/>
  <rect x="60.90625" y="34.25977" width="1.90332" height="1.90332" transform="translate(97.06934 -26.64648) rotate(90)" style="fill: #07a8eb"/>
  <rect x="60.90625" y="30.45313" width="1.90332" height="1.90332" style="fill: #07a8eb"/>
  <rect x="62.80957" y="28.5498" width="1.90332" height="1.90332" style="fill: #07a8eb"/>
  <rect x="49.48633" y="22.83984" width="1.90332" height="1.90332" style="fill: #07a8eb"/>
  <rect x="64.71289" y="24.74316" width="1.90332" height="1.90332" style="fill: #07a8eb"/>
  <rect x="66.61621" y="26.64648" width="1.90332" height="1.90332" transform="translate(95.16602 -39.96973) rotate(90)" style="fill: #07a8eb"/>
  <rect x="64.71289" y="30.45313" width="1.90332" height="1.90332" transform="translate(97.06934 -34.25977) rotate(90)" style="fill: #07a8eb"/>
  <rect x="68.51953" y="28.5498" width="1.90332" height="1.90332" transform="translate(98.97266 -39.96973) rotate(90)" style="fill: #07a8eb"/>
  <rect x="53.29297" y="36.16309" width="1.90332" height="1.90332" style="fill: #07a8eb"/>
  <rect x="62.80957" y="32.35645" width="1.90332" height="1.90332" style="fill: #07a8eb"/>
  <rect x="66.61621" y="32.35645" width="1.90332" height="1.90332" style="fill: #07a8eb"/>
  <rect x="66.61621" y="38.06641" width="1.90332" height="1.90332" style="fill: #07a8eb"/>
  <rect x="70.42285" y="36.16309" width="1.90332" height="1.90332" transform="translate(108.48926 -34.25977) rotate(90)" style="fill: #07a8eb"/>
  <rect x="68.51953" y="30.45313" width="1.90332" height="1.90332" transform="translate(100.87598 -38.06641) rotate(90)" style="fill: #07a8eb"/>
  <rect x="72.32617" y="34.25977" width="1.90332" height="1.90332" transform="translate(108.48926 -38.06641) rotate(90)" style="fill: #07a8eb"/>
  <rect x="51.38965" y="38.06641" width="1.90332" height="1.90332" style="fill: #07a8eb"/>
  <rect x="51.38965" y="34.25977" width="1.90332" height="1.90332" style="fill: #07a8eb"/>
  <rect x="55.19629" y="36.16309" width="1.90332" height="1.90332" transform="translate(93.2627 -19.0332) rotate(90)" style="fill: #07a8eb"/>
  <rect x="57.09961" y="38.06641" width="1.90332" height="1.90332" transform="translate(97.06934 -19.0332) rotate(90)" style="fill: #07a8eb"/>
  <rect x="62.80957" y="38.06641" width="1.90332" height="1.90332" style="fill: #07a8eb"/>
  <rect x="72.32617" y="36.16309" width="1.90332" height="1.90332" style="fill: #07a8eb"/>
  <rect x="64.71289" y="34.25977" width="1.90332" height="1.90332" style="fill: #07a8eb"/>
  <rect x="66.61621" y="36.16309" width="1.90332" height="1.90332" transform="translate(104.68262 -30.45313) rotate(90)" style="fill: #07a8eb"/>
  <rect x="68.51953" y="38.06641" width="1.90332" height="1.90332" transform="translate(108.48926 -30.45313) rotate(90)" style="fill: #07a8eb"/>
  <rect x="70.42285" y="32.35645" width="1.90332" height="1.90332" style="fill: #07a8eb"/>
  <rect x="74.22949" y="30.45313" width="1.90332" height="1.90332" transform="translate(106.58594 -43.77637) rotate(90)" style="fill: #07a8eb"/>
  <rect x="70.42285" y="32.35645" width="1.90332" height="1.90332" transform="translate(104.68262 -38.06641) rotate(90)" style="fill: #07a8eb"/>
  <rect x="72.32617" y="32.35645" width="1.90332" height="1.90332" transform="translate(106.58594 -39.96973) rotate(90)" style="fill: #07a8eb"/>
</svg>
