<svg id="Layer_1" data-name="Layer 1" xmlns="http://www.w3.org/2000/svg" viewBox="0 0 78.12467 9.86963">
  <title>logo</title>
  <path d="M0,0H1.91748L3.96191,6.16162,6.1328,0H7.47266l2.1709,6.16162L11.688,0h1.91748l-3.271,9.86963H8.99512L6.7959,3.62354,4.61035,9.86963H3.271Z" style="fill: #FFFFFF"/>
  <g>
    <polygon points="22.616 7.672 21.893 5.985 19.903 5.985 19.906 5.992 17.906 5.992 17.903 5.985 17.4 5.985 15.424 5.985 15.4 5.985 15.396 5.992 15.42 5.992 14.7 7.672 12.7 7.672 11.759 9.87 13.747 9.87 14.677 7.684 18.639 7.684 19.57 9.87 21.558 9.87 20.616 7.672 22.616 7.672" style="fill: #FFFFFF"/>
    <polygon points="16.651 3.074 17.903 5.985 19.893 5.985 17.328 0 15.988 0 13.424 5.985 15.4 5.985 16.651 3.074" style="fill: #FFFFFF"/>
  </g>
  <g>
    <polygon points="63.469 7.672 62.745 5.985 60.756 5.985 60.759 5.992 58.759 5.992 58.756 5.985 58.252 5.985 56.276 5.985 56.252 5.985 56.249 5.992 56.273 5.992 55.553 7.672 53.553 7.672 52.611 9.87 54.599 9.87 55.53 7.684 59.492 7.684 60.422 9.87 62.41 9.87 61.469 7.672 63.469 7.672" style="fill: #FFFFFF"/>
    <polygon points="57.504 3.074 58.756 5.985 60.745 5.985 58.181 0 56.841 0 54.276 5.985 56.252 5.985 57.504 3.074" style="fill: #FFFFFF"/>
  </g>
  <polygon points="21.243 0 21.243 1.692 23.852 1.692 23.852 9.87 25.755 9.87 25.755 1.692 28.363 1.692 28.363 0 21.243 0" style="fill: #FFFFFF"/>
  <polygon points="32.157 8.178 32.157 5.428 35.188 5.428 35.188 5.427 35.188 3.74 35.188 3.736 32.157 3.736 32.157 1.692 36.175 1.692 36.175 0 30.254 0 30.254 3.74 32.157 3.74 32.157 5.427 30.254 5.427 30.254 9.87 36.316 9.87 36.316 8.178 32.157 8.178" style="fill: #FFFFFF"/>
  <path d="M42.93447,5.427l-.06793-.08325a2.54393,2.54393,0,0,0,.98682-.57812,2.806,2.806,0,0,0,.67822-1.02612,2.72566,2.72566,0,0,0,.1958-.99,2.77953,2.77953,0,0,0-.874-2.01611A2.98448,2.98448,0,0,0,41.69613,0H38.10091V9.86963h1.90332V5.499h.69092l3.51074,4.37061h2.35449ZM40.00423,1.69238h1.5791a1.16113,1.16113,0,0,1,.959.31006,1.15015,1.15015,0,0,1,0,1.5083.81482.81482,0,0,1-.38947.22876,2.01436,2.01436,0,0,1-.56952.06763h-1.5791V1.69238Z" style="fill: #FFFFFF"/>
  <polygon points="53.937 1.692 53.937 0 48.015 0 48.015 3.74 49.918 3.74 49.918 5.427 48.015 5.427 48.015 9.87 49.918 9.87 49.918 5.428 52.95 5.428 52.95 5.427 52.95 3.74 52.95 3.736 49.918 3.736 49.918 1.692 53.937 1.692" style="fill: #FFFFFF"/>
  <polygon points="66.705 8.178 66.705 0 64.802 0 64.802 9.87 70.864 9.87 70.864 8.178 66.705 8.178" style="fill: #FFFFFF"/>
  <polygon points="73.965 8.178 73.965 0 72.062 0 72.062 9.87 78.125 9.87 78.125 8.178 73.965 8.178" style="fill: #FFFFFF"/>
</svg>
